<?xml version="1.0" encoding="utf-8"?>
<svg width="152" height="76" viewBox="0 0 152 76" fill="none" xmlns="http://www.w3.org/2000/svg">
  <defs>
    <clipPath id="clip_path_1">
      <rect width="152" height="76" />
    </clipPath>
  </defs>
  <g>
    <path d="M23.664 48L10.8 30.24L23.136 13.968L33.6 13.968L19.536 31.632L19.536 28.608L34.128 48L23.664 48ZM3.024 48L3.024 13.968L11.616 13.968L11.616 48L3.024 48ZM35.384 48L35.384 41.616L42.488 41.616Q44.504 41.616 45.68 40.488Q46.856 39.36 46.856 37.536Q46.856 36.336 46.328 35.4Q45.8 34.464 44.816 33.96Q43.832 33.456 42.488 33.456L35.384 33.456L35.384 27.264L41.96 27.264Q43.64 27.264 44.72 26.424Q45.8 25.584 45.8 23.808Q45.8 22.032 44.72 21.192Q43.64 20.352 41.96 20.352L35.384 20.352L35.384 13.968L44.024 13.968Q47.192 13.968 49.52 15.168Q51.848 16.368 53.096 18.384Q54.344 20.4 54.344 22.944Q54.344 26.352 52.016 28.584Q49.688 30.816 45.272 31.344L45.272 28.464Q50.168 29.04 52.76 31.608Q55.352 34.176 55.352 38.064Q55.352 40.944 53.912 43.176Q52.472 45.408 49.856 46.704C48.112 47.568 46.056 48 43.688 48L35.384 48ZM28.568 48L28.568 13.968L37.016 13.968L37.016 48L28.568 48ZM68.128 48.624Q64.192 48.624 60.88 47.28Q57.568 45.936 55.096 43.536Q52.624 41.136 51.232 37.896Q49.84 34.656 49.84 30.912Q49.84 27.168 51.208 23.976Q52.576 20.784 55.024 18.384Q57.472 15.984 60.784 14.664Q64.096 13.344 68.032 13.344Q71.968 13.344 75.28 14.664Q78.592 15.984 81.04 18.384Q83.488 20.784 84.856 24Q86.224 27.216 86.224 30.96Q86.224 34.704 84.856 37.92Q83.488 41.136 81.04 43.56Q78.592 45.984 75.304 47.304Q72.016 48.624 68.128 48.624ZM68.032 40.944Q70.912 40.944 73.024 39.696Q75.136 38.448 76.288 36.192Q77.44 33.936 77.44 30.912Q77.44 28.704 76.792 26.88Q76.144 25.056 74.896 23.736Q73.648 22.416 71.92 21.696Q70.192 20.976 68.032 20.976Q65.152 20.976 63.04 22.2Q60.928 23.424 59.776 25.68Q58.624 27.936 58.624 30.912Q58.624 33.216 59.272 35.064Q59.92 36.912 61.168 38.232Q62.416 39.552 64.144 40.248Q65.872 40.944 68.032 40.944ZM99.432 48.624Q95.496 48.624 92.184 47.28Q88.872 45.936 86.4 43.536Q83.928 41.136 82.536 37.896Q81.144 34.656 81.144 30.912Q81.144 27.168 82.512 23.976Q83.88 20.784 86.328 18.384Q88.776 15.984 92.088 14.664Q95.4 13.344 99.336 13.344Q103.272 13.344 106.584 14.664Q109.896 15.984 112.344 18.384Q114.792 20.784 116.16 24Q117.528 27.216 117.528 30.96Q117.528 34.704 116.16 37.92Q114.792 41.136 112.344 43.56Q109.896 45.984 106.608 47.304Q103.32 48.624 99.432 48.624ZM99.336 40.944Q102.216 40.944 104.328 39.696Q106.44 38.448 107.592 36.192Q108.744 33.936 108.744 30.912Q108.744 28.704 108.096 26.88Q107.448 25.056 106.2 23.736Q104.952 22.416 103.224 21.696Q101.496 20.976 99.336 20.976Q96.456 20.976 94.344 22.2Q92.232 23.424 91.08 25.68Q89.928 27.936 89.928 30.912Q89.928 33.216 90.576 35.064Q91.224 36.912 92.472 38.232Q93.72 39.552 95.448 40.248Q97.176 40.944 99.336 40.944ZM113.648 48L113.648 13.968L119.84 13.968L132.896 33.696L129.968 33.696L142.976 13.968L149.168 13.968L149.168 48L140.672 48L140.672 28.176L142.016 28.56L134.192 40.32L128.624 40.32L120.848 28.56L122.192 28.176L122.192 48L113.648 48Z" fill="#F1F8FF" clip-path="url(#clip_path_1)" />
    <rect width="147" height="11" fill="#F1F8FF" fill-rule="evenodd" transform="translate(3 52)" />
  </g>
</svg>