<?xml version="1.0" encoding="utf-8"?>
<svg width="1140" height="296.1" viewBox="0 0 1140 296.1" fill="none" xmlns="http://www.w3.org/2000/svg">
  <g>
    <path d="M29.52 107.424L29.52 88.272L49.68 88.272Q53.424 88.272 56.52 86.76Q59.616 85.248 61.488 82.224Q63.36 79.2 63.36 74.736Q63.36 70.272 61.488 67.176Q59.616 64.08 56.52 62.568Q53.424 61.056 49.68 61.056L29.52 61.056L29.52 41.904L54.144 41.904Q63.936 41.904 71.856 45.864Q79.776 49.824 84.384 57.096Q88.992 64.368 88.992 74.736Q88.992 84.816 84.384 92.232Q79.776 99.648 71.856 103.536Q63.936 107.424 54.144 107.424L29.52 107.424ZM9.072 144L9.072 41.904L34.848 41.904L34.848 144L9.072 144ZM98.504 144L98.504 73.584L123.56 73.584L123.56 144L98.504 144ZM123.56 105.696L112.328 96.192Q116.504 84.24 123.416 78.192Q130.328 72.144 141.416 72.144Q146.456 72.144 150.128 73.44Q153.8 74.736 156.392 77.472L141.848 96.912Q140.696 95.616 138.608 94.824Q136.52 94.032 133.928 94.032Q129.032 94.032 126.296 96.984Q123.56 99.936 123.56 105.696ZM193.984 145.584Q182.176 145.584 173.104 140.904Q164.032 136.224 158.848 127.872Q153.664 119.52 153.664 108.72Q153.664 98.064 158.704 89.784Q163.744 81.504 172.456 76.68Q181.168 71.856 192.112 71.856Q202.768 71.856 211.048 76.392Q219.328 80.928 224.008 88.92Q228.688 96.912 228.688 107.136Q228.688 109.296 228.472 111.528Q228.256 113.76 227.536 116.64L165.472 116.928L165.472 100.8L217.6 100.368L206.368 107.424Q206.224 101.52 204.64 97.704Q203.056 93.888 200.032 91.872Q197.008 89.856 192.4 89.856Q187.648 89.856 184.192 92.16Q180.736 94.464 178.864 98.64Q176.992 102.816 176.992 108.72Q176.992 114.768 179.008 119.016Q181.024 123.264 184.768 125.424Q188.512 127.584 193.984 127.584Q199.168 127.584 203.128 125.856Q207.088 124.128 210.256 120.528L223.36 133.632Q218.176 139.536 210.76 142.56Q203.344 145.584 193.984 145.584ZM263.976 146.016Q257.496 146.016 251.232 144.288Q244.968 142.56 239.568 139.608Q234.168 136.656 230.424 132.768L244.104 118.8Q247.56 122.4 252.384 124.416Q257.208 126.432 262.68 126.432Q265.848 126.432 267.504 125.568Q269.16 124.704 269.16 123.12Q269.16 120.816 266.784 119.592Q264.408 118.368 260.592 117.432Q256.776 116.496 252.6 115.128Q248.424 113.76 244.536 111.456Q240.648 109.152 238.272 104.976Q235.896 100.8 235.896 94.32Q235.896 87.552 239.568 82.44Q243.24 77.328 249.864 74.376Q256.488 71.424 265.416 71.424Q274.488 71.424 282.696 74.52Q290.904 77.616 295.944 83.808L282.12 97.776Q278.664 93.888 274.488 92.376Q270.312 90.864 266.856 90.864Q263.544 90.864 262.104 91.8Q260.664 92.736 260.664 94.32Q260.664 96.192 263.04 97.344Q265.416 98.496 269.232 99.432Q273.048 100.368 277.152 101.808Q281.256 103.248 285.072 105.768Q288.888 108.288 291.264 112.464Q293.64 116.64 293.64 123.264Q293.64 133.776 285.576 139.896Q277.512 146.016 263.976 146.016ZM339.584 145.584Q327.776 145.584 318.704 140.904Q309.632 136.224 304.448 127.872Q299.264 119.52 299.264 108.72Q299.264 98.064 304.304 89.784Q309.344 81.504 318.056 76.68Q326.768 71.856 337.712 71.856Q348.368 71.856 356.648 76.392Q364.928 80.928 369.608 88.92Q374.288 96.912 374.288 107.136Q374.288 109.296 374.072 111.528Q373.856 113.76 373.136 116.64L311.072 116.928L311.072 100.8L363.2 100.368L351.968 107.424Q351.824 101.52 350.24 97.704Q348.656 93.888 345.632 91.872Q342.608 89.856 338 89.856Q333.248 89.856 329.792 92.16Q326.336 94.464 324.464 98.64Q322.592 102.816 322.592 108.72Q322.592 114.768 324.608 119.016Q326.624 123.264 330.368 125.424Q334.112 127.584 339.584 127.584Q344.768 127.584 348.728 125.856Q352.688 124.128 355.856 120.528L368.96 133.632Q363.776 139.536 356.36 142.56Q348.944 145.584 339.584 145.584ZM428.44 144L428.44 104.256Q428.44 99.36 425.56 96.552Q422.68 93.744 418.216 93.744Q415.192 93.744 412.816 95.04Q410.44 96.336 409.144 98.64Q407.848 100.944 407.848 104.256L398.056 99.648Q398.056 91.152 401.8 85.032Q405.544 78.912 412.096 75.528Q418.648 72.144 427 72.144Q434.632 72.144 440.608 75.672Q446.584 79.2 450.04 85.104Q453.496 91.008 453.496 98.496L453.496 144L428.44 144ZM382.792 144L382.792 73.584L407.848 73.584L407.848 144L382.792 144ZM500.592 145.584Q489.36 145.584 480.36 140.832Q471.36 136.08 466.176 127.728Q460.992 119.376 460.992 108.864Q460.992 98.208 466.248 89.856Q471.504 81.504 480.504 76.68Q489.504 71.856 500.88 71.856Q509.088 71.856 515.856 74.592Q522.624 77.328 528.24 82.8L512.4 98.64Q510.24 96.48 507.432 95.4Q504.624 94.32 500.88 94.32Q496.848 94.32 493.608 96.12Q490.368 97.92 488.424 101.088Q486.48 104.256 486.48 108.72Q486.48 113.04 488.424 116.28Q490.368 119.52 493.608 121.392Q496.848 123.264 500.88 123.264Q504.912 123.264 507.792 121.968Q510.672 120.672 512.832 118.224L528.816 134.064Q522.912 139.824 516.072 142.704Q509.232 145.584 500.592 145.584ZM494.832 175.248Q488.784 175.248 484.752 173.952Q480.72 172.656 476.4 170.208L483.456 160.848Q485.472 162.144 487.632 162.864Q489.792 163.584 492.096 163.584Q494.832 163.584 495.912 162.792Q496.992 162 496.992 160.704Q496.992 159.408 495.48 158.544Q493.968 157.68 490.656 157.68L487.488 157.68L492.24 142.272L505.2 142.272L501.168 152.928L494.544 147.312Q504.48 147.312 509.664 151.128Q514.848 154.944 514.848 161.28Q514.848 167.328 509.376 171.288Q503.904 175.248 494.832 175.248ZM564.392 145.44Q554.6 145.44 546.968 140.688Q539.336 135.936 535.016 127.656Q530.696 119.376 530.696 108.864Q530.696 98.208 535.016 89.856Q539.336 81.504 546.968 76.824Q554.6 72.144 564.392 72.144Q571.016 72.144 576.488 74.52Q581.96 76.896 585.488 81.216Q589.016 85.536 589.736 91.008L589.736 126.432Q589.016 132.048 585.488 136.296Q581.96 140.544 576.488 142.992Q571.016 145.44 564.392 145.44ZM569.72 123.12Q575.912 123.12 579.728 119.088Q583.544 115.056 583.544 108.72Q583.544 104.544 581.816 101.376Q580.088 98.208 576.992 96.336Q573.896 94.464 569.864 94.464Q565.832 94.464 562.736 96.336Q559.64 98.208 557.84 101.448Q556.04 104.688 556.04 108.72Q556.04 112.896 557.768 116.136Q559.496 119.376 562.664 121.248Q565.832 123.12 569.72 123.12ZM582.536 144L582.536 125.136L586.136 107.856L582.536 90.864L582.536 73.584L607.16 73.584L607.16 144L582.536 144ZM620.272 105.984L620.272 85.68L688.96 85.68L688.96 105.984L620.272 105.984ZM644.32 59.616L665.056 59.616L665.056 131.76L644.32 131.76L644.32 59.616Z" fill="#FFFFFF" transform="translate(433.22 57)" />
    <path d="M48.175 175.31L48.175 144.055L81.075 144.055Q87.185 144.055 92.2375 141.587Q97.29 139.12 100.345 134.185Q103.4 129.25 103.4 121.965Q103.4 114.68 100.345 109.627Q97.29 104.575 92.2375 102.107Q87.185 99.64 81.075 99.64L48.175 99.64L48.175 68.385L88.36 68.385Q104.34 68.385 117.265 74.8475Q130.19 81.31 137.71 93.1775Q145.23 105.045 145.23 121.965Q145.23 138.415 137.71 150.517Q130.19 162.62 117.265 168.965Q104.34 175.31 88.36 175.31L48.175 175.31ZM14.805 235L14.805 68.385L56.87 68.385L56.87 235L14.805 235Z" transform="" fill="#FFFFFF" />
    <path d="M84.9153 0C38.0179 0 0 37.3842 0 83.5C0 129.616 38.0179 167 84.9153 167C131.813 167 169.831 129.616 169.831 83.5C169.831 37.3842 131.813 0 84.9153 0ZM98.3005 69.2984L115.672 69.2984C117.583 69.2984 119.146 70.8358 119.146 72.7149L119.146 93.2142C119.146 95.0933 117.583 96.6307 115.672 96.6307L98.3005 96.6307L98.3005 113.748C98.3005 115.627 96.7371 117.164 94.8263 117.164L73.9806 117.164C72.0697 117.164 70.5063 115.627 70.5063 113.748L70.5063 96.6307L53.1349 96.6307C51.2241 96.6307 49.6607 95.0933 49.6607 93.2142L49.6607 72.7149C49.6607 70.8358 51.2241 69.2984 53.1349 69.2984L70.5063 69.2984L70.5063 52.2499C70.5063 50.3708 72.0697 48.8333 73.9806 48.8333L94.8263 48.8333C96.7371 48.8333 98.3005 50.3708 98.3005 52.2499L98.3005 69.2984Z" fill="#FFFFFF" fill-rule="evenodd" transform="translate(153.559 65)" />
    <rect width="20.339" height="167" fill="#FFFFFF" fill-rule="evenodd" transform="translate(368.136 65)" />
  </g>
</svg>